<svg width="1024" height="1024" viewBox="0 0 1024 1024" fill="none" xmlns="http://www.w3.org/2000/svg">
<rect width="1024" height="1024" fill="#65C466"/>
<path d="M328.695 662C300.029 662 279.195 653.333 266.195 636C253.195 618.667 246.695 594.167 246.695 562.5V410.5H304.195V555C304.195 574.667 307.529 589.167 314.195 598.5C321.195 607.833 333.195 612.5 350.195 612.5C361.529 612.5 371.862 609.833 381.195 604.5C390.862 598.833 401.029 589.333 411.695 576V410.5H469.195V656H422.195L417.695 617H415.695C404.029 630.333 391.195 641.167 377.195 649.5C363.195 657.833 347.029 662 328.695 662ZM554.5 736L719 301H768.5L604 736H554.5Z" fill="white"/>
</svg>
